<svg xmlns="http://www.w3.org/2000/svg" xmlns:xlink="http://www.w3.org/1999/xlink" version="1.1" x="0px" y="0px" viewBox="0 0 88 98" style="enable-background:new 0 0 88 98;" xml:space="preserve"><ellipse cx="25.1" cy="53.5" rx="2.2" ry="2.4"></ellipse><ellipse cx="61.8" cy="53.5" rx="2.2" ry="2.4"></ellipse><path d="M82.3,43h-0.4c-0.6,0-1.2,0.1-1.7,0.3c1.2-1,2-2.5,2-4.2l0.1-4.3c0.1,0,0.1,0.1,0.2,0.1c0.3,0.2,0.6,0.2,0.9,0.2  c0.8,0,1.5-0.4,1.9-1.2c0.5-1.1,0.1-2.3-1-2.9c-0.5-0.3-1.1-0.5-1.7-0.8v-6.7c0-13.2-7-23.5-15.8-23.5H20.6  C11.7,0,4.7,10.3,4.7,23.5v6.1c-1.1,0.4-2.1,0.9-3.1,1.4c-1.1,0.5-1.5,1.8-1,2.9c0.5,1.1,1.8,1.5,2.9,1c0.7-0.4,1.5-0.7,2.3-1  L5.9,39c0,1.7,0.8,3.3,2,4.3C7.3,43.1,6.8,43,6.1,43H5.7C2.6,43,0,45.2,0,48v12.4c0,2.7,2.6,5,5.7,5h0.1c0.5,9,5.1,17.3,12.9,22.7  l5.5,3.9c5.6,3.9,12.5,6.1,19.5,6.1c7,0,13.9-2.1,19.5-6.1l5.5-3.9c7.7-5.4,12.4-13.8,12.9-22.7h0.6c3.1,0,5.7-2.2,5.7-5V48  C88,45.2,85.5,43,82.3,43z M5.7,48.9v12.2H5.7c-0.9,0-1.4-0.5-1.4-0.7V48c0-0.2,0.5-0.7,1.4-0.7h0.4C5.9,47.8,5.7,48.3,5.7,48.9z   M9.8,44.2c0.4,0.1,0.7,0.1,1.1,0.1c-0.3,0-0.6,0-0.9,0C9.9,44.3,9.9,44.2,9.8,44.2z M59.6,81.6l-9,6.9c0,0-0.1,0-0.1,0l-5.8-3.6  h-1.7l-5.8,3.6c0,0-0.1,0-0.1,0l-9-6.9c0,0,0-0.1,0-0.1l4-3.1c2.8-2.2,6.6-3.4,10.6-3.4H45c4,0,7.8,1.2,10.6,3.4L59.6,81.6  C59.6,81.5,59.6,81.6,59.6,81.6z M72.1,49.2v17.1c0,0,0,0,0,0.1l-7.2,6.7c0,0,0,0,0,0.1V80c0,0.1-0.1,0.1-0.1,0.1l-8.3-7.7  c-2.8-2.6-6.6-4.1-10.6-4.1h-1.3c0.5-0.1,1-0.3,1.4-0.5c0.7,0.2,1.5,0.3,2.2,0.3c2.1,0,4-0.8,5.2-2.2c1.6-1.9,1.7-4.6,0.1-7.3  c-0.6-1-1.9-1.4-2.9-0.8c-1,0.6-1.4,1.9-0.8,2.9c0.2,0.4,0.5,1,0.5,1.6c0-0.1-0.1-0.2-0.1-0.3c-0.7-0.9-2-1.1-3-0.4l-2.9,2.1  c-0.8,0.6-1.7,0.6-2.5,0l-2.9-2.1c-0.9-0.7-2.3-0.5-3,0.4c-0.1,0.1-0.1,0.2-0.1,0.3c0-0.6,0.3-1.2,0.5-1.6c0.6-1,0.2-2.3-0.8-2.9  c-1-0.6-2.3-0.2-2.9,0.8c-1.5,2.7-1.5,5.3,0.2,7.3c1.2,1.4,3.1,2.2,5.2,2.2c0.7,0,1.5-0.1,2.2-0.3c0.5,0.2,1,0.4,1.4,0.5h-0.1  c-4,0-7.8,1.5-10.6,4.1l-8.3,7.7c-0.1,0-0.1,0-0.1-0.1v-6.9c0,0,0,0,0-0.1l-7.2-6.7c0,0,0,0,0-0.1V49.2c0-2.4-1.9-4.6-4.4-4.9  c0.1,0,0.1,0,0.2,0c2.6-0.2,4.4-2.9,4.4-5.7l0-0.2c0-2.8,1.8-5.2,4.4-6.1l2-0.7c14.8-3.4,33.1-3,47,1.2c2,1.1,3.3,3.2,3.3,5.6l0,0.2  c0,2.8,1.9,5.4,4.4,5.7c-0.1,0-0.2,0-0.3,0C73.9,44.5,72.1,46.8,72.1,49.2z M77.9,44.4c-0.2,0-0.4-0.1-0.7-0.1c0.3,0,0.6,0,1-0.1  C78.1,44.3,78,44.3,77.9,44.4z M78.3,28.5C58.4,21.1,29.4,21,9,28v-4.5C9,13.1,14.3,4.3,20.6,4.3h46.2c6.3,0,11.6,8.8,11.6,19.3  V28.5z M83.8,60.3c0,0.2-0.5,0.7-1.4,0.7h-0.5V48.9c0-0.5-0.1-1.1-0.3-1.6c0.1,0,0.2-0.1,0.4-0.1h0.4c0.9,0,1.4,0.5,1.4,0.7V60.3z"></path><path d="M31.3,42.6H23c-1.2,0-2.1,1-2.1,2.1s1,2.1,2.1,2.1h8.4c1.2,0,2.1-1,2.1-2.1S32.5,42.6,31.3,42.6z"></path><path d="M64.1,42.6h-8.4c-1.2,0-2.1,1-2.1,2.1s1,2.1,2.1,2.1h8.4c1.2,0,2.1-1,2.1-2.1S65.3,42.6,64.1,42.6z"></path><polygon points="45.6,11.3 43.1,6.3 40.6,11.3 35.1,12.1 39.1,16 38.2,21.5 43.1,18.9 48,21.5 47.1,16 51.1,12.1 "></polygon><path d="M51.3,78.4H37c-1.2,0-2.1,1-2.1,2.1s1,2.1,2.1,2.1h14.3c1.2,0,2.1-1,2.1-2.1S52.5,78.4,51.3,78.4z"></path></svg>